[center]
Call Me Mrs Miracle 2010 DVDRip XViD AC3 - SiC

Poster:


IMDB Link:
www.imdb.com/title/tt1708459/

Description:
This Christmas, Emily Merkle (call her Mrs. Miracle!) is working in the toy department 
at Finley’s, the last family-owned department store in New York City. And her boss is 
none other than…Jake Finley, the owner’s son. For Jake, holiday memories of brightly 
wrapped gifts, decorated trees and family were destroyed in a Christmas Eve tragedy 
years before. Now Christmas means just one thing to him—and to his father. Profit. 
Because they need a Christmas miracle to keep the business afloat. Holly Larson needs 
a miracle, too. She wants to give her eight-year-old nephew, Gabe, the holiday he 
deserves. Holly’s widowed brother is in the army and won’t be home for Christmas, 
but at least she can get Gabe that toy robot from Finley’s, the one gift he desperately 
wants. If she can figure out how to afford it… Fortunately, it’s Mrs. Miracle to the 
rescue. Next to making children happy, she likes nothing better than helping others—and 
that includes doing a bit of matchmaking! This Christmas will be different. For all of them.

MediaInfo:
Complete name                    : Call.Me.Mrs.Miracle.2010.DVDRip.XViD.AC3-SiC.avi
Format                           : AVI
Format/Info                      : Audio Video Interleave
File size                        : 1.46 GiB
Duration                         : 1h 27mn
Overall bit rate                 : 2 375 Kbps

Video
ID                               : 0
Format                           : MPEG-4 Visual
Format profile                   : Advanced Simple@L5
Format settings, BVOP            : 2
Format settings, QPel            : Yes
Format settings, GMC             : No warppoints
Format settings, Matrix          : Default (H.263)
Codec ID                         : XVID
Codec ID/Hint                    : XviD
Duration                         : 1h 27mn
Bit rate                         : 1 920 Kbps
Width                            : 720 pixels
Height                           : 400 pixels
Display aspect ratio             : 16:9
Frame rate                       : 23.976 fps
Color space                      : YUV
Chroma subsampling               : 4:2:0
Bit depth                        : 8 bits
Scan type                        : Progressive
Compression mode                 : Lossy
Bits/(Pixel*Frame)               : 0.278
Stream size                      : 1.18 GiB (81%)
Writing library                  : XviD 1.2.1 (UTC 2008-12-04)

Audio
ID                               : 1
Format                           : AC-3
Format/Info                      : Audio Coding 3
Mode extension                   : CM (complete main)
Codec ID                         : 2000
Duration                         : 1h 27mn
Bit rate mode                    : Constant
Bit rate                         : 448 Kbps
Channel(s)                       : 5 channels
Channel positions                : Front: L C R, Side: L R
Sampling rate                    : 48.0 KHz
Bit depth                        : 16 bits
Compression mode                 : Lossy
Stream size                      : 282 MiB (19%)
Alignment                        : Aligned on interleaves
Interleave, duration             : 64 ms (1.53 video frames)
Interleave, preload duration     : 192 ms
Title                            : VTS_02_1 T80 3_2ch 448Kbps DELAY 0ms_new

Screenshots: